<svg xmlns="http://www.w3.org/2000/svg" width="511.0" height="1010.0" viewBox="0 0 511.0 1010.0">
  <g transform="scale(1,-1) translate(-15,765)">
  <path d="M212.00,0.00 L190.00,1.00 L145.00,7.00 L105.00,27.00 L73.00,60.00 L53.00,101.00 L45.00,145.00 L45.00,168.00 L45.00,183.00 L48.00,214.00 L51.00,229.00 L58.00,274.00 L90.00,362.00 L137.00,441.00 L196.00,513.00 L262.00,578.00 L333.00,637.00 L370.00,665.00 L123.00,665.00 L134.00,735.00 L496.00,735.00 L485.00,665.00 L445.00,637.00 L367.00,577.00 L293.00,512.00 L226.00,439.00 L172.00,357.00 L135.00,265.00 L127.00,217.00 L126.00,207.00 L123.00,187.00 L123.00,176.00 L123.00,158.00 L132.00,121.00 L153.00,91.00 L187.00,73.00 L224.00,69.00 L261.00,69.00 L297.00,60.00 L330.00,41.00 L354.00,13.00 L366.00,-23.00 L366.00,-41.00 L366.00,-49.00 L364.00,-65.00 L363.00,-72.00 L358.00,-103.00 L327.00,-161.00 L276.00,-199.00 L214.00,-215.00 L182.00,-215.00 L158.00,-215.00 L158.00,-145.00 L182.00,-145.00 L199.00,-145.00 L234.00,-138.00 L263.00,-119.00 L281.00,-89.00 L284.00,-73.00 L285.00,-69.00 L286.00,-61.00 L286.00,-57.00 L286.00,-44.00 L273.00,-20.00 L252.00,-5.00 L226.00,0.00 L212.00,0.00 Z" fill="#000" fill-rule="evenodd"/>
  </g>
</svg>
