<svg xmlns="http://www.w3.org/2000/svg" width="489.0" height="1010.0" viewBox="0 0 489.0 1010.0">
  <g transform="scale(1,-1) translate(-53,765)">
  <path d="M429.00,-71.00 L429.00,-55.00 L414.00,-27.00 L389.00,-10.00 L358.00,-2.00 L327.00,0.00 L296.00,0.00 L266.00,3.00 L235.00,9.00 L205.00,18.00 L177.00,30.00 L151.00,47.00 L128.00,68.00 L109.00,92.00 L95.00,120.00 L86.00,150.00 L83.00,181.00 L83.00,196.00 L83.00,197.00 L83.00,221.00 L92.00,268.00 L114.00,311.00 L147.00,346.00 L186.00,373.00 L230.00,393.00 L253.00,400.00 L226.00,408.00 L176.00,432.00 L135.00,469.00 L112.00,521.00 L112.00,548.00 L112.00,567.00 L123.00,603.00 L146.00,632.00 L177.00,653.00 L194.00,662.00 L88.00,662.00 L88.00,735.00 L512.00,735.00 L512.00,662.00 L406.00,662.00 L389.00,662.00 L356.00,660.00 L323.00,656.00 L291.00,649.00 L259.00,637.00 L230.00,621.00 L207.00,597.00 L195.00,566.00 L195.00,549.00 L195.00,533.00 L207.00,501.00 L230.00,478.00 L260.00,461.00 L291.00,450.00 L323.00,443.00 L356.00,439.00 L389.00,437.00 L406.00,437.00 L448.00,437.00 L448.00,364.00 L406.00,364.00 L378.00,364.00 L324.00,359.00 L271.00,344.00 L221.00,318.00 L184.00,278.00 L165.00,225.00 L165.00,197.00 L165.00,178.00 L176.00,141.00 L199.00,111.00 L231.00,90.00 L267.00,78.00 L305.00,74.00 L324.00,74.00 L346.00,73.00 L391.00,68.00 L433.00,55.00 L472.00,30.00 L500.00,-5.00 L512.00,-48.00 L512.00,-71.00 L512.00,-91.00 L504.00,-131.00 L483.00,-166.00 L451.00,-193.00 L414.00,-209.00 L374.00,-215.00 L353.00,-215.00 L300.00,-215.00 L300.00,-141.00 L353.00,-141.00 L368.00,-141.00 L397.00,-134.00 L419.00,-114.00 L429.00,-86.00 L429.00,-71.00 Z" fill="#000" fill-rule="evenodd"/>
  </g>
</svg>
