<svg xmlns="http://www.w3.org/2000/svg" width="439.0" height="1010.0" viewBox="0 0 439.0 1010.0">
  <g transform="scale(1,-1) translate(-27,765)">
  <path d="M358.00,-73.00 L358.00,-56.00 L344.00,-25.00 L318.00,-7.00 L285.00,0.00 L252.00,0.00 L220.00,3.00 L188.00,10.00 L157.00,21.00 L129.00,38.00 L104.00,59.00 L84.00,85.00 L70.00,115.00 L61.00,147.00 L57.00,179.00 L57.00,196.00 L57.00,230.00 L76.00,298.00 L118.00,352.00 L178.00,390.00 L210.00,400.00 L185.00,408.00 L138.00,434.00 L102.00,472.00 L84.00,523.00 L84.00,549.00 L84.00,568.00 L93.00,604.00 L115.00,634.00 L144.00,657.00 L160.00,665.00 L64.00,665.00 L64.00,735.00 L436.00,735.00 L436.00,665.00 L343.00,665.00 L323.00,665.00 L283.00,662.00 L244.00,652.00 L207.00,635.00 L177.00,608.00 L162.00,570.00 L162.00,550.00 L162.00,530.00 L177.00,492.00 L207.00,465.00 L244.00,449.00 L283.00,439.00 L323.00,436.00 L343.00,436.00 L380.00,436.00 L380.00,366.00 L343.00,366.00 L318.00,366.00 L267.00,359.00 L219.00,342.00 L177.00,313.00 L148.00,271.00 L135.00,222.00 L135.00,196.00 L135.00,179.00 L142.00,144.00 L159.00,113.00 L185.00,90.00 L217.00,75.00 L252.00,70.00 L269.00,70.00 L270.00,70.00 L290.00,70.00 L332.00,64.00 L370.00,49.00 L404.00,24.00 L427.00,-11.00 L436.00,-52.00 L436.00,-72.00 L436.00,-103.00 L415.00,-161.00 L369.00,-200.00 L309.00,-215.00 L279.00,-215.00 L250.00,-215.00 L250.00,-145.00 L279.00,-145.00 L295.00,-145.00 L325.00,-137.00 L348.00,-117.00 L358.00,-88.00 L358.00,-73.00 Z" fill="#000" fill-rule="evenodd"/>
  </g>
</svg>
