<svg xmlns="http://www.w3.org/2000/svg" width="442.0" height="803.0" viewBox="0 0 442.0 803.0">
  <g transform="scale(1,-1) translate(-26,558)">
  <path d="M350.00,-74.00 L350.00,-55.00 L328.00,-23.00 L294.00,-6.00 L256.00,0.00 L218.00,3.00 L180.00,8.00 L145.00,22.00 L114.00,44.00 L89.00,73.00 L71.00,107.00 L60.00,143.00 L56.00,181.00 L56.00,200.00 L56.00,320.00 L56.00,347.00 L64.00,400.00 L86.00,449.00 L121.00,490.00 L167.00,517.00 L220.00,528.00 L247.00,528.00 L272.00,528.00 L322.00,520.00 L366.00,498.00 L403.00,463.00 L427.00,419.00 L438.00,370.00 L438.00,345.00 L438.00,340.00 L360.00,340.00 L360.00,343.00 L360.00,366.00 L346.00,410.00 L314.00,443.00 L270.00,458.00 L247.00,458.00 L230.00,458.00 L197.00,450.00 L169.00,430.00 L150.00,402.00 L138.00,371.00 L134.00,337.00 L134.00,320.00 L134.00,200.00 L134.00,177.00 L144.00,133.00 L171.00,96.00 L212.00,75.00 L257.00,69.00 L302.00,65.00 L345.00,51.00 L384.00,27.00 L413.00,-8.00 L428.00,-51.00 L428.00,-74.00 L428.00,-95.00 L418.00,-136.00 L394.00,-170.00 L360.00,-195.00 L320.00,-210.00 L279.00,-215.00 L258.00,-215.00 L257.00,-215.00 L257.00,-145.00 L258.00,-145.00 L274.00,-145.00 L307.00,-139.00 L335.00,-121.00 L350.00,-91.00 L350.00,-74.00 Z" fill="#000" fill-rule="evenodd"/>
  </g>
</svg>
