<svg xmlns="http://www.w3.org/2000/svg" width="559.0" height="1010.0" viewBox="0 0 559.0 1010.0">
  <g transform="scale(1,-1) translate(-41,765)">
  <path d="M353.00,-71.00 L354.00,-67.00 L355.00,-61.00 L355.00,-58.00 L355.00,-40.00 L331.00,-13.00 L298.00,-1.00 L263.00,0.00 L229.00,1.00 L195.00,7.00 L162.00,18.00 L132.00,36.00 L107.00,60.00 L88.00,89.00 L77.00,121.00 L71.00,156.00 L71.00,173.00 L71.00,187.00 L74.00,215.00 L77.00,229.00 L84.00,275.00 L121.00,365.00 L173.00,444.00 L239.00,515.00 L310.00,578.00 L387.00,635.00 L427.00,662.00 L148.00,662.00 L160.00,735.00 L570.00,735.00 L558.00,662.00 L514.00,635.00 L429.00,577.00 L348.00,514.00 L272.00,444.00 L210.00,361.00 L166.00,267.00 L158.00,216.00 L157.00,208.00 L155.00,191.00 L155.00,182.00 L155.00,161.00 L168.00,121.00 L196.00,92.00 L235.00,76.00 L276.00,73.00 L317.00,72.00 L357.00,64.00 L395.00,47.00 L424.00,18.00 L440.00,-21.00 L440.00,-42.00 L440.00,-49.00 L438.00,-63.00 L437.00,-71.00 L432.00,-102.00 L401.00,-160.00 L349.00,-199.00 L286.00,-215.00 L254.00,-215.00 L208.00,-215.00 L208.00,-141.00 L254.00,-141.00 L271.00,-141.00 L304.00,-134.00 L332.00,-116.00 L351.00,-87.00 L353.00,-71.00 Z" fill="#000" fill-rule="evenodd"/>
  </g>
</svg>
